<svg width="14" height="12" viewBox="0 0 14 12" fill="none" xmlns="http://www.w3.org/2000/svg">
<path d="M13.531 6.04446C13.531 6.57052 13.1218 6.97968 12.625 6.97968L3.65274 6.97968L6.72142 10.0776C7.10135 10.4283 7.10135 11.042 6.72142 11.3927C6.54606 11.5681 6.31226 11.6558 6.07846 11.6558C5.81543 11.6558 5.58162 11.5681 5.40627 11.3927L0.730187 6.71665C0.350255 6.36594 0.350255 5.75221 0.730187 5.4015L5.40627 0.72542C5.75697 0.345488 6.37071 0.345488 6.72142 0.72542C7.10135 1.07613 7.10135 1.68986 6.72142 2.04057L3.65274 5.10925L12.625 5.10925C13.1218 5.10925 13.531 5.54763 13.531 6.04446Z" fill="#3A3839"/>
</svg>
