<svg width="21" height="15" viewBox="0 0 21 15" fill="none" xmlns="http://www.w3.org/2000/svg">
<path d="M10.7793 11.25C10.1152 11.25 9.45117 11.0547 8.9043 10.625L0.779297 4.29688V13.125C0.779297 14.1797 1.59961 15 2.6543 15H18.9043C19.9199 15 20.7793 14.1797 20.7793 13.125V4.29688L12.6152 10.625C12.0684 11.0547 11.4043 11.25 10.7793 11.25ZM1.4043 3.20312L9.68555 9.64844C10.3105 10.1172 11.209 10.1172 11.834 9.64844L20.1152 3.20312C20.5059 2.89062 20.7793 2.38281 20.7793 1.875C20.7793 0.859375 19.9199 0 18.9043 0H2.6543C1.59961 0 0.779297 0.859375 0.779297 1.875C0.779297 2.38281 1.01367 2.89062 1.4043 3.20312Z" fill="#B82228"/>
</svg>
