<svg width="25" height="18" viewBox="0 0 25 18" fill="none" xmlns="http://www.w3.org/2000/svg">
<path d="M24.3359 4.45801L13.2812 0.512695C12.7344 0.317383 12.1484 0.317383 11.6016 0.512695L0.625 4.45801C0.234375 4.61426 0 4.96582 0 5.35645C0 5.78613 0.234375 6.1377 0.625 6.29395L2.96875 7.11426C2.5 7.73926 2.14844 8.44238 1.99219 9.22363C1.5625 9.41895 1.25 9.84863 1.25 10.3564C1.25 10.7471 1.40625 11.0986 1.67969 11.333L0.742188 17.1533C0.664062 17.5439 0.976562 17.8564 1.32812 17.8564H3.63281C3.98438 17.8564 4.29688 17.5439 4.21875 17.1533L3.28125 11.333C3.55469 11.0986 3.75 10.7471 3.75 10.3564C3.75 9.96582 3.51562 9.61426 3.24219 9.41895C3.39844 8.71582 3.75 8.09082 4.21875 7.58301L11.6406 10.2393C12.1875 10.4346 12.7734 10.4346 13.3203 10.2393L24.3359 6.29395C24.7266 6.1377 25 5.78613 25 5.35645C25 4.96582 24.7266 4.61426 24.3359 4.45801ZM13.7109 11.4111C13.3203 11.5674 12.8906 11.6064 12.5 11.6064C12.0703 11.6064 11.6406 11.5674 11.25 11.4111L5.54688 9.37988L5 14.9658C5 16.5674 8.32031 17.8564 12.5 17.8564C16.6016 17.8564 20 16.5674 20 14.9658L19.4141 9.37988L13.7109 11.4111Z" fill="#B82228"/>
</svg>
