<svg width="21" height="19" viewBox="0 0 21 19" fill="none" xmlns="http://www.w3.org/2000/svg">
<path d="M3.32227 15.125C3.32227 15.4766 3.5957 15.75 3.94727 15.75H19.5723C20.2363 15.75 20.8223 16.3359 20.8223 17C20.8223 17.7031 20.2363 18.25 19.5723 18.25H3.94727C2.18945 18.25 0.822266 16.8828 0.822266 15.125V2C0.822266 1.33594 1.36914 0.75 2.07227 0.75C2.73633 0.75 3.32227 1.33594 3.32227 2V15.125ZM14.1816 10.3984C13.7129 10.9062 12.8926 10.9062 12.4238 10.3984L10.1973 8.17188L6.68164 11.6484C6.21289 12.1562 5.39258 12.1562 4.92383 11.6484C4.41602 11.1797 4.41602 10.3594 4.92383 9.89062L9.29883 5.51562C9.76758 5.00781 10.5879 5.00781 11.0566 5.51562L13.3223 7.74219L17.4238 3.64062C17.8926 3.13281 18.7129 3.13281 19.1816 3.64062C19.6895 4.10938 19.6895 4.92969 19.1816 5.39844L14.1816 10.3984Z" fill="#B82228"/>
</svg>
