<svg width="17" height="17" viewBox="0 0 17 17" fill="none" xmlns="http://www.w3.org/2000/svg">
<path d="M3.65625 6.46997C4.03125 6.87622 4.6875 6.87622 5.0625 6.46997L7.375 4.18872V11.7512C7.375 12.3137 7.8125 12.7512 8.375 12.7512C8.90625 12.7512 9.375 12.3137 9.375 11.7512V4.18872L11.6562 6.46997C12.0312 6.87622 12.6875 6.87622 13.0625 6.46997C13.4688 6.09497 13.4688 5.43872 13.0625 5.06372L9.0625 1.06372C8.875 0.876221 8.625 0.751221 8.375 0.751221C8.09375 0.751221 7.84375 0.876221 7.65625 1.06372L3.65625 5.06372C3.25 5.43872 3.25 6.09497 3.65625 6.46997ZM15.375 11.7512H10.375C10.375 12.8762 9.46875 13.7512 8.375 13.7512C7.25 13.7512 6.375 12.8762 6.375 11.7512H1.375C0.8125 11.7512 0.375 12.22 0.375 12.7512V15.7512C0.375 16.3137 0.8125 16.7512 1.375 16.7512H15.375C15.9062 16.7512 16.375 16.3137 16.375 15.7512V12.7512C16.375 12.22 15.9062 11.7512 15.375 11.7512ZM13.875 15.0012C13.4375 15.0012 13.125 14.6887 13.125 14.2512C13.125 13.845 13.4375 13.5012 13.875 13.5012C14.2812 13.5012 14.625 13.845 14.625 14.2512C14.625 14.6887 14.2812 15.0012 13.875 15.0012Z" fill="#B82228"/>
</svg>
